<?xml version="1.0" encoding="UTF-8"?>
<svg id="Layer_1" xmlns="http://www.w3.org/2000/svg" xmlns:xlink="http://www.w3.org/1999/xlink" version="1.1" viewBox="0 0 3123.033 915.681">
  <!-- Generator: Adobe Illustrator 29.5.1, SVG Export Plug-In . SVG Version: 2.1.0 Build 141)  -->
  <defs>
    <style>
      .st0, .st1, .st2, .st3, .st4 {
        stroke: #000;
      }

      .st0, .st1, .st4 {
        stroke-width: 4px;
      }

      .st0, .st5, .st6 {
        fill: #00005b;
      }

      .st7 {
        fill: url(#linear-gradient2);
      }

      .st8 {
        fill: url(#linear-gradient1);
      }

      .st9 {
        fill: url(#linear-gradient9);
      }

      .st10 {
        fill: url(#linear-gradient3);
      }

      .st11 {
        fill: url(#linear-gradient6);
      }

      .st12 {
        fill: url(#linear-gradient8);
      }

      .st13 {
        fill: url(#linear-gradient7);
      }

      .st14 {
        fill: url(#linear-gradient5);
      }

      .st15 {
        fill: url(#linear-gradient4);
      }

      .st16 {
        fill: #4f3bd6;
      }

      .st17 {
        fill: url(#linear-gradient31);
      }

      .st18 {
        fill: url(#linear-gradient30);
      }

      .st19 {
        fill: url(#linear-gradient32);
      }

      .st20 {
        fill: url(#linear-gradient34);
      }

      .st21 {
        fill: url(#linear-gradient35);
      }

      .st22 {
        fill: url(#linear-gradient33);
      }

      .st23 {
        fill: url(#linear-gradient36);
      }

      .st24 {
        fill: url(#linear-gradient28);
      }

      .st25 {
        fill: url(#linear-gradient29);
      }

      .st26 {
        fill: url(#linear-gradient18);
      }

      .st27 {
        fill: url(#linear-gradient13);
      }

      .st28 {
        fill: url(#linear-gradient12);
      }

      .st29 {
        fill: url(#linear-gradient15);
      }

      .st30 {
        fill: url(#linear-gradient16);
      }

      .st31 {
        fill: url(#linear-gradient11);
      }

      .st32 {
        fill: url(#linear-gradient10);
      }

      .st33 {
        fill: url(#linear-gradient17);
      }

      .st34 {
        fill: url(#linear-gradient14);
      }

      .st35 {
        fill: url(#linear-gradient19);
      }

      .st36 {
        fill: url(#linear-gradient24);
      }

      .st37 {
        fill: url(#linear-gradient25);
      }

      .st38 {
        fill: url(#linear-gradient27);
      }

      .st39 {
        fill: url(#linear-gradient26);
      }

      .st1, .st40 {
        fill: #2323db;
      }

      .st41 {
        fill: url(#linear-gradient);
      }

      .st42 {
        fill: #294dee;
      }

      .st43 {
        fill: #0202b0;
      }

      .st5 {
        stroke: #00005b;
      }

      .st2 {
        fill: #151596;
        stroke-width: 3px;
      }

      .st44 {
        fill: url(#linear-gradient21);
      }

      .st44, .st45, .st46, .st47 {
        isolation: isolate;
      }

      .st44, .st45, .st46, .st47, .st48 {
        opacity: .2;
      }

      .st45 {
        fill: url(#linear-gradient20);
      }

      .st46 {
        fill: url(#linear-gradient23);
      }

      .st47 {
        fill: url(#linear-gradient22);
      }

      .st3 {
        fill: #ffff94;
      }

      .st4 {
        fill: none;
      }
    </style>
    <linearGradient id="linear-gradient" x1="2419.648" y1="1768.506" x2="2419.648" y2="1366.675" gradientTransform="translate(0 -1179.4)" gradientUnits="userSpaceOnUse">
      <stop offset="0" stop-color="#fff"/>
      <stop offset="1" stop-color="#31ecff"/>
    </linearGradient>
    <linearGradient id="linear-gradient1" x1="1978.069" y1="1769.806" x2="1978.069" y2="1368.206" gradientTransform="translate(0 -1179.4)" gradientUnits="userSpaceOnUse">
      <stop offset="0" stop-color="#fff"/>
      <stop offset="1" stop-color="#31ecff"/>
    </linearGradient>
    <linearGradient id="linear-gradient2" x1="1890.902" y1="1708.006" x2="1890.902" y2="1636.406" gradientTransform="translate(0 -1179.4)" gradientUnits="userSpaceOnUse">
      <stop offset="0" stop-color="#fff"/>
      <stop offset="1" stop-color="#b8f8ff"/>
    </linearGradient>
    <linearGradient id="linear-gradient3" x1="644.921" y1="1712.615" x2="644.921" y2="1373.806" gradientTransform="translate(0 -1179.4)" gradientUnits="userSpaceOnUse">
      <stop offset="0" stop-color="#fff"/>
      <stop offset="1" stop-color="#31ecff"/>
    </linearGradient>
    <linearGradient id="linear-gradient4" x1="1533.332" y1="1770.406" x2="1533.332" y2="1369.614" gradientTransform="translate(0 -1179.4)" gradientUnits="userSpaceOnUse">
      <stop offset="0" stop-color="#fff"/>
      <stop offset="1" stop-color="#31ecff"/>
    </linearGradient>
    <linearGradient id="linear-gradient5" x1="1636.753" y1="1434.406" x2="1636.753" y2="1370.506" gradientTransform="translate(0 -1179.4)" gradientUnits="userSpaceOnUse">
      <stop offset=".7" stop-color="#67f1ff"/>
      <stop offset="1" stop-color="#31ecff"/>
    </linearGradient>
    <linearGradient id="linear-gradient6" x1="945.903" y1="1771.97" x2="945.903" y2="1372.406" gradientTransform="translate(0 -1179.4)" gradientUnits="userSpaceOnUse">
      <stop offset="0" stop-color="#fff"/>
      <stop offset="1" stop-color="#31ecff"/>
    </linearGradient>
    <linearGradient id="linear-gradient7" x1="2746.353" y1="1705.821" x2="2746.353" y2="1364.897" gradientTransform="translate(0 -1179.4)" gradientUnits="userSpaceOnUse">
      <stop offset="0" stop-color="#fff"/>
      <stop offset="1" stop-color="#31ecff"/>
    </linearGradient>
    <linearGradient id="linear-gradient8" x1="2798.953" y1="1422.317" x2="2798.953" y2="1365.497" gradientTransform="translate(0 -1179.4)" gradientUnits="userSpaceOnUse">
      <stop offset=".8" stop-color="#61f0ff"/>
      <stop offset="1" stop-color="#31ecff"/>
    </linearGradient>
    <linearGradient id="linear-gradient9" x1="1233.602" y1="1771.339" x2="1233.602" y2="1371.006" gradientTransform="translate(0 -1179.4)" gradientUnits="userSpaceOnUse">
      <stop offset="0" stop-color="#fff"/>
      <stop offset="1" stop-color="#31ecff"/>
    </linearGradient>
    <linearGradient id="linear-gradient10" x1="1173.003" y1="1468.906" x2="1173.003" y2="1371.777" gradientTransform="translate(0 -1179.4)" gradientUnits="userSpaceOnUse">
      <stop offset=".7" stop-color="#6af1ff"/>
      <stop offset="1" stop-color="#31ecff"/>
    </linearGradient>
    <linearGradient id="linear-gradient11" x1="1138.203" y1="1420.006" x2="1138.203" y2="1372.506" gradientTransform="translate(0 -1179.4)" gradientUnits="userSpaceOnUse">
      <stop offset=".3" stop-color="#6cf1ff"/>
      <stop offset="1" stop-color="#31ecff"/>
    </linearGradient>
    <linearGradient id="linear-gradient12" x1="351.203" y1="1712.806" x2="351.203" y2="1374.35" gradientTransform="translate(0 -1179.4)" gradientUnits="userSpaceOnUse">
      <stop offset="0" stop-color="#fff"/>
      <stop offset="1" stop-color="#31ecff"/>
    </linearGradient>
    <linearGradient id="linear-gradient13" x1="318.003" y1="1407.532" x2="318.003" y2="1375.232" gradientTransform="translate(0 -1179.4)" gradientUnits="userSpaceOnUse">
      <stop offset="0" stop-color="#fff"/>
      <stop offset="0" stop-color="#38edff"/>
      <stop offset="1" stop-color="#31ecff"/>
    </linearGradient>
    <linearGradient id="linear-gradient14" x1="2194.401" y1="1769.106" x2="2194.401" y2="1368.206" gradientTransform="translate(0 -1179.4)" gradientUnits="userSpaceOnUse">
      <stop offset="0" stop-color="#fff"/>
      <stop offset="1" stop-color="#31ecff"/>
    </linearGradient>
    <linearGradient id="linear-gradient15" x1="1755.453" y1="1769.806" x2="1755.453" y2="1369.806" gradientTransform="translate(0 -1179.4)" gradientUnits="userSpaceOnUse">
      <stop offset="0" stop-color="#fff"/>
      <stop offset="1" stop-color="#31ecff"/>
    </linearGradient>
    <linearGradient id="linear-gradient16" x1="1312.803" y1="1771.306" x2="1312.803" y2="1603.206" gradientTransform="translate(0 -1179.4)" gradientUnits="userSpaceOnUse">
      <stop offset="0" stop-color="#fff"/>
      <stop offset="1" stop-color="#aef8ff"/>
    </linearGradient>
    <linearGradient id="linear-gradient17" x1="2674.603" y1="1706.506" x2="2674.603" y2="1607.206" gradientTransform="translate(0 -1179.4)" gradientUnits="userSpaceOnUse">
      <stop offset="0" stop-color="#fff"/>
      <stop offset="1" stop-color="#a9f1fd"/>
    </linearGradient>
    <linearGradient id="linear-gradient18" x1="402.803" y1="1712.207" x2="402.803" y2="1614.607" gradientTransform="translate(0 -1179.4)" gradientUnits="userSpaceOnUse">
      <stop offset=".4" stop-color="#fff"/>
      <stop offset="1" stop-color="#adf7ff"/>
    </linearGradient>
    <linearGradient id="linear-gradient19" x1="701.003" y1="1711.423" x2="701.003" y2="1637.306" gradientTransform="translate(0 -1179.4)" gradientUnits="userSpaceOnUse">
      <stop offset="0" stop-color="#fff"/>
      <stop offset="1" stop-color="#baf9ff"/>
    </linearGradient>
    <linearGradient id="linear-gradient20" x1="2419.713" y1="1697.306" x2="2419.713" y2="1766.706" gradientTransform="translate(0 -1179.4)" gradientUnits="userSpaceOnUse">
      <stop offset="0" stop-color="#fff"/>
      <stop offset="1" stop-color="#31ecff"/>
    </linearGradient>
    <linearGradient id="linear-gradient21" x1="2194.451" y1="1697.306" x2="2194.451" y2="1767.406" gradientTransform="translate(0 -1179.4)" gradientUnits="userSpaceOnUse">
      <stop offset="0" stop-color="#fff"/>
      <stop offset="1" stop-color="#31ecff"/>
    </linearGradient>
    <linearGradient id="linear-gradient22" x1="2817.903" y1="1699.806" x2="2817.903" y2="1766.106" gradientTransform="translate(0 -1179.4)" gradientUnits="userSpaceOnUse">
      <stop offset="0" stop-color="#fff"/>
      <stop offset="1" stop-color="#31ecff"/>
    </linearGradient>
    <linearGradient id="linear-gradient23" x1="2640.71" y1="1701.506" x2="2640.71" y2="1766.106" gradientTransform="translate(0 -1179.4)" gradientUnits="userSpaceOnUse">
      <stop offset="0" stop-color="#fff"/>
      <stop offset="1" stop-color="#31ecff"/>
    </linearGradient>
    <linearGradient id="linear-gradient24" x1="1977.969" y1="1734.406" x2="1977.969" y2="2032.306" gradientTransform="translate(0 -1179.4)" gradientUnits="userSpaceOnUse">
      <stop offset="0" stop-color="#fff"/>
      <stop offset=".2" stop-color="#31ecff"/>
    </linearGradient>
    <linearGradient id="linear-gradient25" x1="1755.503" y1="1732.106" x2="1755.503" y2="1862.306" gradientTransform="translate(0 -1179.4)" gradientUnits="userSpaceOnUse">
      <stop offset="0" stop-color="#fff"/>
      <stop offset=".3" stop-color="#31ecff"/>
    </linearGradient>
    <linearGradient id="linear-gradient26" x1="1534.053" y1="1736.206" x2="1534.053" y2="1850.806" gradientTransform="translate(0 -1179.4)" gradientUnits="userSpaceOnUse">
      <stop offset="0" stop-color="#fff"/>
      <stop offset=".3" stop-color="#31ecff"/>
    </linearGradient>
    <linearGradient id="linear-gradient27" x1="1312.803" y1="1738.306" x2="1312.803" y2="1868.706" gradientTransform="translate(0 -1179.4)" gradientUnits="userSpaceOnUse">
      <stop offset="0" stop-color="#fff"/>
      <stop offset=".3" stop-color="#31ecff"/>
    </linearGradient>
    <linearGradient id="linear-gradient28" x1="1167.538" y1="1731.706" x2="1167.538" y2="1876.106" gradientTransform="translate(0 -1179.4)" gradientUnits="userSpaceOnUse">
      <stop offset="0" stop-color="#fff"/>
      <stop offset=".3" stop-color="#31ecff"/>
    </linearGradient>
    <linearGradient id="linear-gradient29" x1="1059.703" y1="1736.606" x2="1059.703" y2="1818.806" gradientTransform="translate(0 -1179.4)" gradientUnits="userSpaceOnUse">
      <stop offset="0" stop-color="#fff"/>
      <stop offset=".2" stop-color="#31ecff"/>
    </linearGradient>
    <linearGradient id="linear-gradient30" x1="945.853" y1="1737.506" x2="945.853" y2="2047.506" gradientTransform="translate(0 -1179.4)" gradientUnits="userSpaceOnUse">
      <stop offset="0" stop-color="#fff"/>
      <stop offset=".2" stop-color="#31ecff"/>
    </linearGradient>
    <linearGradient id="linear-gradient31" x1="1019.003" y1="1705.606" x2="1019.003" y2="1706.406" gradientTransform="translate(0 -1179.4)" gradientUnits="userSpaceOnUse">
      <stop offset="0" stop-color="#fff"/>
      <stop offset=".3" stop-color="#31ecff"/>
    </linearGradient>
    <linearGradient id="linear-gradient32" x1="730.003" y1="1736.406" x2="730.003" y2="1919.006" gradientTransform="translate(0 -1179.4)" gradientUnits="userSpaceOnUse">
      <stop offset="0" stop-color="#fff"/>
      <stop offset=".3" stop-color="#31ecff"/>
    </linearGradient>
    <linearGradient id="linear-gradient33" x1="587.531" y1="1736.506" x2="587.531" y2="1936.706" gradientTransform="translate(0 -1179.4)" gradientUnits="userSpaceOnUse">
      <stop offset="0" stop-color="#fff"/>
      <stop offset=".3" stop-color="#31ecff"/>
    </linearGradient>
    <linearGradient id="linear-gradient34" x1="436.708" y1="1738.106" x2="436.708" y2="1939.706" gradientTransform="translate(0 -1179.4)" gradientUnits="userSpaceOnUse">
      <stop offset="0" stop-color="#fff"/>
      <stop offset=".3" stop-color="#31ecff"/>
    </linearGradient>
    <linearGradient id="linear-gradient35" x1="489.053" y1="1702.106" x2="489.053" y2="1702.306" gradientTransform="translate(0 -1179.4)" gradientUnits="userSpaceOnUse">
      <stop offset="0" stop-color="#fff"/>
      <stop offset=".3" stop-color="#31ecff"/>
    </linearGradient>
    <linearGradient id="linear-gradient36" x1="298.673" y1="1740.106" x2="298.673" y2="1967.806" gradientTransform="translate(0 -1179.4)" gradientUnits="userSpaceOnUse">
      <stop offset="0" stop-color="#fff"/>
      <stop offset=".3" stop-color="#31ecff"/>
    </linearGradient>
  </defs>
  <g>
    <polygon class="st40" points="2905.153 100.406 3064.553 670.106 3023.353 670.106 3023.353 698.506 3002.953 698.506 3002.953 731.606 121.653 734.806 121.653 701.706 88.753 701.706 88.753 673.306 55.753 673.306 205.653 101.506 714.853 97.806 714.853 119.406 785.553 119.406 786.653 97.906 1029.553 97.806 1029.553 119.406 1063.553 119.406 1063.853 97.906 1860.053 97.906 1860.853 118.306 1892.853 118.306 1892.853 97.906 2325.353 97.906 2326.053 119.806 2359.653 119.806 2359.653 97.906 2606.253 97.806 2605.453 118.306 2646.453 117.506 2646.453 99.506 2794.953 99.506 2794.953 119.906 2829.153 119.406 2829.153 100.906 2905.153 100.406"/>
    <polygon class="st4" points="2829.153 100.906 2905.153 100.406 3064.553 670.106 3023.353 670.106 3023.353 698.506 3002.953 698.506 3002.953 731.606 121.653 734.806 121.653 701.706 88.753 701.706 88.753 673.306 55.753 673.306 205.653 101.506 714.853 97.806 714.853 119.406 785.553 119.406 786.653 97.906 1029.553 97.806 1029.553 119.406 1063.553 119.406 1063.853 97.906 1860.053 97.906 1860.853 118.306 1892.853 118.306 1892.853 97.906 2325.353 97.906 2326.053 119.806 2359.653 119.806 2359.653 97.906 2606.253 97.806 2605.453 118.306 2646.453 117.506 2646.453 99.506 2794.953 99.506 2794.953 119.906 2829.153 119.406 2829.153 100.906"/>
  </g>
  <polygon class="st0" points="2610.253 633.806 2357.253 633.806 2324.953 633.806 2167.653 633.806 2141.353 633.806 1704.953 633.806 1674.153 633.806 1069.553 633.806 1038.753 633.806 812.053 633.806 779.653 633.806 114.953 633.806 234.453 138.706 713.353 138.706 787.353 138.706 1031.053 138.706 1063.353 138.706 1860.753 138.706 1893.053 138.706 2326.453 138.706 2360.353 138.706 2602.553 138.706 2648.753 138.706 2795.253 138.706 2829.253 138.706 2878.453 138.706 3011.253 633.806 2642.553 633.806 2610.253 633.806"/>
  <g>
    <path class="st3" d="M2183.353,855.506v-62.6h45.6v8.9h7.6v26.8h-7.6v8.9h-30.4v17.9h-15.2v.1h0ZM2198.553,828.706h22.8v-26.8h-22.8v26.8Z"/>
    <path class="st3" d="M2244.153,855.506v-62.6h45.6v8.9h7.6v26.8h-15.2v8.9h7.6v8.9h7.6v8.9h-22.8v-8.9h-7.6v-8.9h-7.6v17.9h-15.2v.1h0ZM2259.353,828.706h15.2v-8.9h7.6v-17.9h-22.8v26.8Z"/>
    <path class="st3" d="M2304.953,855.506v-62.6h53.2v8.9h-38v17.9h30.4v8.9h-30.4v17.9h38v8.9h-53.2v.1h0Z"/>
    <path class="st3" d="M2373.253,855.506v-8.9h-7.6v-8.9h15.2v8.9h22.8v-17.9h-30.4v-8.9h-7.6v-17.9h7.6v-8.9h38v8.9h7.6v8.9h-15.2v-8.9h-22.8v17.9h30.4v8.9h7.6v17.9h-7.6v8.9h-38Z"/>
    <path class="st3" d="M2434.053,855.506v-8.9h-7.6v-8.9h15.2v8.9h22.8v-17.9h-30.4v-8.9h-7.6v-17.9h7.6v-8.9h38v8.9h7.6v8.9h-15.2v-8.9h-22.8v17.9h30.4v8.9h7.6v17.9h-7.6v8.9h-38Z"/>
    <path class="st3" d="M2570.853,855.506v-53.7h-15.2v-8.9h45.6v8.9h-15.2v53.7h-15.2Z"/>
    <path class="st3" d="M2616.353,855.506v-8.9h-7.6v-44.7h7.6v-8.9h38v8.9h7.6v44.7h-7.6v8.9h-38ZM2623.953,846.506h22.8v-44.7h-22.8v44.7Z"/>
    <path class="st3" d="M2745.553,855.506v-8.9h-7.6v-8.9h-7.6v-26.8h7.6v-8.9h7.6v-8.9h30.4v8.9h7.6v8.9h-15.2v-8.9h-15.2v8.9h-7.6v26.8h7.6v8.9h15.2v-8.9h15.2v8.9h-7.6v8.9h-30.4Z"/>
    <path class="st3" d="M2798.753,855.506v-8.9h-7.6v-44.7h7.6v-8.9h38v8.9h7.6v44.7h-7.6v8.9h-38ZM2806.353,846.506h22.8v-44.7h-22.8v44.7Z"/>
    <path class="st3" d="M2851.953,855.506v-62.6h38v8.9h7.6v8.9h7.6v26.8h-7.6v8.9h-7.6v8.9h-38v.2h0ZM2867.153,846.506h15.2v-8.9h7.6v-26.8h-7.6v-8.9h-15.2v44.7-.1h0Z"/>
    <path class="st3" d="M2912.653,855.506v-62.6h53.2v8.9h-38v17.9h30.4v8.9h-30.4v17.9h38v8.9h-53.2v.1h0Z"/>
  </g>
  <path class="st41" d="M2587.153,519.606c.7,2,2.6,5.6.6,7.2-6.1,4.9-14.6,10-21.7,14.5-15.4,9.6-30.8,19.3-46,29l-6.5,4-21.9,14.1c-13.1,0-27.2.7-40.8.7h-200.2c20.8-19,47.5-36.9,63.8-57.4,4-5.1,4.5-4.9,3.8-10.7-.8-9.2-3-20.2-4.4-29.6l-1.3-9.1-44-294c10-1,44.4-.5,56.3-.5,35.8.3,71.6.2,107.3,0,24.4-1,62.7-.3,88.4-.2l45.1,223.7,1.8,9.4c6.4,31.9,14.9,67.3,19.9,99h0l-.2-.1h0Z"/>
  <path class="st5" d="M2509.753,571.406c-5.1-1.5-55-2.3-62.8-5.7,7.6-3.2,39.6.6,49.3,1.5,3.9.4,15.8.1,20,0l-6.5,4h0v.2Z"/>
  <path class="st0" d="M2387.553,252.206h36.3c10.7,51.8,19.3,106.2,28.3,158.2l1.9,9.9c2,11.7,4.1,23.4,6.4,35.1h-38c-5-22.3-8.2-47.5-12.1-70l-22.7-133.2h-.1,0Z"/>
  <path class="st42" d="M2452.153,410.506c.8.4,1.6.8,2.4,1.3,29.9,1.3,83.2-.4,110.9-.4l1.8,9.4c-6.3-.7-30.3-.4-37.5-.4h-75.8c0,.1-1.9-9.8-1.9-9.8h0l.1-.1Z"/>
  <path class="st42" d="M2268.453,188.406c10-1,44.4-.5,56.3-.5,35.8.2,71.6.2,107.3,0-9.3,1.7-35,1.1-46.4,1,1.8,9.6,8,38,7.4,46.2l-1.7,1.1h-5c-3.4-2.6-8.7-41-9.6-47.3h-68.3c-10.9,0-29.6.3-39.9-.4h0l-.1-.1h0Z"/>
  <path class="st42" d="M2312.453,482.306c11,0,30.1-1.4,37.9,2.1,1.8,2.9,1.6,1.5.5,4.6-6.4,4.5-26.5,2.2-37.1,2.6l-1.3-9.1h0v-.2h0Z"/>
  <path class="st8" d="M2126.853,524.706c1.4,5.1-8.7,12.9-12.8,18.2l-4.6,5.4c-12.6,12.4-24.6,28.3-37.2,41.4l-243.1.7c9.6-20.7,20.3-41.3,29.8-62.1-1.5-22.3-4.3-48.8-4.2-70.7,21.4-1.5,51.3,1,72.1-.7,23.4-.7,54.8,0,78.8,0-3.1-21.2-4.9-48.3-6.3-69.6-47.7-.4-100.6.7-149.5.7-2.3-41.6-6.1-83.7-7.7-125.2-.8-4.6-.9-10-1.2-14.6-.9-14.8-1.2-44.1-4-57.8l130.8-.7c37.5,0,84.2.7,120.9-.9,2.3,20,3.8,45.5,7.7,65-21.5,0-129.6-1-143.5,1.3-3.8,3.6,2.5,53.1,2.6,60.8l2,3.2c7.6,1,24.1.7,32.6.7l75.8-.2c6.2,0,31.9-.1,37.3.4,4,23.1,6,49.2,8.6,72.6l15.1,132.3h-.1l.1-.2h0Z"/>
  <path class="st16" d="M2126.853,524.706c1.4,5.1-8.7,12.9-12.8,18.2-11.8,0-43.7,1.5-51.6-3.2-1-2.5,4.2-8,6.3-10.8l.7-.5c5.8.4,52.5-.7,56-1.3l1.5-2.3h0l-.1-.1h0Z"/>
  <path class="st43" d="M2060.553,528.306l8.2.5c-2.1,2.8-7.3,8.3-6.3,10.8,7.9,4.7,39.7,3.2,51.6,3.2l-4.6,5.4-1-1.3-2.8-.5-1.7.4c-12,2.4-30.5,3.3-42.5.7-17.9-3.8-6.7-13.2-1-19.3h0l.1.1h0Z"/>
  <path class="st43" d="M1916.453,528.206l8.9.5c-3,5.8-8.5,9.7-.4,13.7,1.3,3.1-1.5,7-4.1,9.7-16.3,2.4-6.8,3.7-15.4,6.1l-2.6-.7c-2.9-4.8,10-23.3,13.5-29.4h0l.1.1h0Z"/>
  <path class="st7" d="M1925.853,527.106l-.4,1.5-8.9-.5-.5-5c-.3,3.2.7,3-2.1,5.1-8.3.5-46.3.5-54.9.1-1.5-22.3-4.3-48.8-4.2-70.7,21.4-1.5,51.3,1,72.1-.7-2.9.8-5.4,1.1-5.4,2.2-.4,21,3,47.4,4.5,67.9h0l-.2.1h0Z"/>
  <path class="st42" d="M1854.753,457.606c21.4-1.5,51.3,1,72-.7-2.9.8-5.4,1.1-5.4,2.2-.4,21,3,47.4,4.5,67.9l-.4,1.6-8.9-.5-.4-5c-2.9-20.4-3.4-44.4-4.9-65.3-17.4,0-39.4.4-56.4-.3h0l-.1.1h0Z"/>
  <path class="st42" d="M1841.053,248.106c1.2,3.5.3,4.5,4,6.1,14.9.7,59.4-1.3,68.4,1.4,1.9,1.8,1.3,2.7,1.2,4.9-1.3,1.2-1.3,1.8-3.2,1.8-21.1,1.1-48.4-.3-69.1.4-.8-4.6-.9-10-1.2-14.6h-.1Z"/>
  <path class="st42" d="M1955.453,315.906l2,3.2c7.6,1,24.1.7,32.6.7l75.8-.2c6.2,0,31.9-.1,37.3.4-15.6.7-38.8.4-55.1.3,1.2,9,2.5,18.5,3.2,27.7.2,3.1,0,4-3,5.7l-2.6-.2c-6.5-4.3-6-26.3-6.5-33-24.1,0-58.3.7-81.5-.1-3.4-1.8-2.1-.7-2.3-4.2h0l.1-.3h0Z"/>
  <path class="st42" d="M2060.053,527.806c-.8-5.3-3.3-13.3,2.1-17.7h2.3c6,5.7,4.9,11.6,5.1,18.2l-.7.5-8.2-.5-.5-.5h-.1Z"/>
  <path class="st10" d="M552.753,195.106l248.4-.7c-2,27.9-8.8,63-12.8,91.2l-25.2,174.5c-14.9.7-102,1.7-110.4,0l-1.5-2.2c1.8-10.2,4.3-22.1,5-32.1h-36.9l-11.5,67.2c-1.5,9.1-3.4,24.3-5.9,32.7l-2.1,5.3c-5.5,1.6-36.9.7-46,.9-4,2.2-5,1.2-9.6.1-16.5-.9-38.8.7-54.2-.7-2.1-2.5-1.2-4-1-7.1,7.7-45.2,17.7-91.8,26.4-137.1l37.3-192.2h0v.2h0ZM696.653,366.606c2.1-8.3,11.7-56.9,9.1-61.1-10.6-1.3-53.9-.7-66.8-.7-1.5,7.6-12.9,57.5-10,61.2,10.6,1.2,54.3.7,67.7.6h0Z"/>
  <path class="st42" d="M544.253,532.206c.7-5.3.4-12.4,4.5-16.8,3.8-1.5,1.8-1.2,6.3-1.1,3.2,3.2-.9,13.6-1.1,17.9-4,2.2-5,1.2-9.6.1h0l-.1-.1h0Z"/>
  <path class="st6" d="M688.053,262.506l43.6-.2c-4.1,39.5-14.3,86.5-20.5,126.5-30.2-.1-60.5-.1-90.6,0l-44.1-.2c3.6-13.8,6-30.3,8.8-44.5l15.4-81.1c29.1,0,58.3-.2,87.5-.5h-.1Z"/>
  <path class="st15" d="M1663.453,388.606h-37.2c.4,23.1,1.5,46.6,1.3,69.6h-38c1.4,9,.9,20.5.8,29.6,0,13.7.2,27.4.8,41.1-.7,6.2-1.3,12.4-1.8,18.5-.1,4.3,0,7.4-1.2,11.7.3,9-1.6,22.4-2.2,31.9h-103.7c-3.2-18.4-4.6-43-5.9-61.8.6-23.5,0-47.6,0-71.1h-37.1c-.7-22.2.5-46.3.5-68.9h-36.5c-.1-9,0-17.9.1-26.8.6-8.3-1-25.8,1-32.8l2.9-138h107.6l-.6,129.5h37.2c.6-25.5-1.5-52.3-.6-78.1.4-11.4,1-42.1-1-52,9.9-.9,98.8-1.2,107.9,0l2.2,63.9v8.3c1.1,41.4,3.3,84,3.3,125.3h0l.2.1h0Z"/>
  <path class="st43" d="M1543.753,529.606c3.3-.2,5.1-.5,8.4-.1.4,6.2,2.5,15.4-3.4,20.4h-2.1c-6.5-3.9-3.7-14.9-2.9-20.2v-.1h0Z"/>
  <path class="st43" d="M1588.353,559.206c-8.8-.4-20.6,1-26.7-1.3l.4-1.5c6.2-2.2,19.3.7,25.7-1.4.7-2.5,1.4-5,1.9-7.5-.1,4.3,0,7.4-1.2,11.7h-.1Z"/>
  <path class="st14" d="M1658.053,191.106l2.2,63.9h-45.5c.1-19.9-.2-43.6-1.5-63.5,12.7,0,32.9.4,44.9-.4h-.1Z"/>
  <path class="st42" d="M1660.153,255.006v8.3c-17.4-.3-37.1,0-54.6,0,.1-22.6,0-49.3-1.4-71.7-14.9,0-40.2.4-54.1-.4,9.9-.9,98.8-1.2,107.9,0-12,.9-32.1.4-44.9.4,1.3,19.9,1.6,43.6,1.5,63.5h45.6v-.1Z"/>
  <path class="st42" d="M1543.653,525.506c-1.1-7.2-2.6-25.2,1.5-31.5l2.1-1c2.1.5,4.2.7,4.5,2.4,2.1,10,.7,23.7.7,33.8v.5c-3.4-.4-5.2,0-8.5.1l-.2-4.3h-.1Z"/>
  <path class="st42" d="M1404.753,329.706v16.8c4.7,0,14-.5,17.4.7,1,2.6,1.8,3.7.7,6.4-10,5.7-15-4.9-19.2,8.9.6-8.3-1-25.7,1-32.8h.1Z"/>
  <path class="st11" d="M836.753,193.706l249.8-.7c-2.9,21-2.7,43.2-6.2,64-48.3,0-95.9.7-144.3.7-.5,17.4-4.5,37.7-5.9,55.6-.5,4.7-1.1,13.8-2.3,18.2l-9.7,84.3c-1.6,13.8-2.7,30.9-5.4,44.4,49.9,0,99.8-.7,150.2-.7-.9,23.4-4.6,47.2-5.8,70.5,8.9,16.8,32.1,43.7,43.8,61.7-8.9.7-32.4.5-42.4.4-17-.2-36.3.3-53,0-7.7.7-38,.4-47.6.4h-97.9c-18-14.6-34-30.7-51.5-45.5-5.8-4.9-13-11.1-17.7-16.3,8.6-44.9,13.7-97.2,19.7-142.7.2-4.6,1.3-11,2.2-15.4,6.8-59.2,18.5-119.9,24.1-178.9h-.1,0Z"/>
  <path class="st43" d="M1010.053,531.506l8.6-1.5c3,4.3,5.6,8.9,10.4,12.7,4.3.7,2.9.5,7.5.4,3.8,1.5,17.7,20.8,19.3,24.3-2.9,2.5-7.1.4-5.5,3.2,3.5,6.2,11.3,15.3,16.4,21,9.2,0,25.5-.2,34.2.3-8.9.7-32.5.5-42.4.4-16.9-.2-36.3.3-53,0,3.1-1.2,45.4-.7,52.1-.7l-47.5-60h0l-.1-.1h0Z"/>
  <path class="st43" d="M866.853,531.606c8.9-.5,29-.6,38-.1,1.6,1.5,2.7,3.1,4,4.8l-1.3.9c-10.4.9-46.1,1.5-55.5-1.5-1.9-.6-1.5-1-2.1-2.4,4.4-1.6,10.1-1.1,16.8-1.5h0l.1-.2h0Z"/>
  <path class="st42" d="M927.853,331.606c0-2.9.7-5.4-1.5-7.8-17.4-2.1-62.2,1.1-85.9-.1-3.6-1.8-2.4-.7-3.2-3.7,7.7-10.2,78.6-1,93-6.6-.5,4.7-1.1,13.8-2.4,18.2h0Z"/>
  <path class="st42" d="M1009.653,527.106c2.1-11.5,2-39.4,6.1-49.1l2.2-.7,2.7,1c6.5,6.1,2.1,9,1.5,15.7-1,10.8-1.8,21.6-2.9,32.4l-.7,3.6-8.6,1.5-.3-4.4h0Z"/>
  <path class="st42" d="M866.553,530.506c.6-2.8.5-6.1,3.1-8.1,7.7-.2,28.8-.8,35.2.5,1,3.4.7,4.4.3,7.9l-.3.5c-9-.5-29.1-.4-38,.1l-.3-1h0v.1h0Z"/>
  <path class="st42" d="M810.453,388.106c.2-4.6,1.3-11,2.2-15.4,5.4,3.5,11,0,17.3,2.5,1,3.5,1.6,2.6-.4,5.6-7.7,2.9-11.6.6-17.7,3.6l-1.3,3.8h0l-.1-.1h0Z"/>
  <path class="st13" d="M2935.453,524.606c-5.8,1.8-32.3,1.4-38.6.7l-1.2.5c-3.6-.4-4.9-.1-8.5,0l-.3-.7c-9.5,1.8-52.6,1.5-65,.6-1.4,0-2.1-2.6-2.6-3.8-8-26.2-13.8-55.8-20.6-82.4-.7-1.5-2.5-10.2-2.9-12.1-.2-2.6.1-4.3-2.4-6.5-8.2-3.2-25.8-1.6-37.4-1.6-4.1-22.1-10.9-46.6-16.1-68.9h-37.3c4.6,24.9,11.8,52,17.6,77-5.4,1.5-102.5,1.2-113.4.7l-33.3-160.4-10.5-50.4c-1.9-9-5-21.1-5.7-30.1,35.8.1,71.7-.7,107.9-.7,3.4,17.7,8.2,36.2,12.3,53.9.7,3.5,1.5,7,2.4,10.4,9.4,0,24.3-.2,33.3.3l1.8-.4c2.9,1.8,15.2,58.2,17,65.8h37c-5-20.7-9.7-43.1-15.6-63.6-.6-1-2.1-9.3-2.4-10.9l-13.7-55.8c36.3,0,71.7-.8,108.2-.7l15.2,56.4,2.2,8.4c23.9,90.6,46.9,183.3,72.6,273.7v.6h0Z"/>
  <path class="st12" d="M2845.453,186.206l15.2,56.4c-33.8.7-75.3,0-109.7,0l-13.7-55.8c36.3,0,71.7-.8,108.2-.7h0v.1h0Z"/>
  <path class="st42" d="M2750.953,242.606c34.4,0,76,.7,109.7,0l2.2,8.4c-13.8,0-103.4-1-108.8,1.1l-.7,1.5c-.6-1-2.1-9.3-2.4-10.9h0v-.1Z"/>
  <path class="st42" d="M2677.453,240.706c.7,3.5,1.5,7,2.4,10.4,9.4,0,24.3-.2,33.3.3-7,1-60.9.5-68.3-.5-2.4-2.1-3.5-4.9-1.5-7.2,7.3-1.7,22.9,1,32.6-1l1.7-2h-.2Z"/>
  <path class="st9" d="M1368.353,321.806h-73.7c-.1,10.7-.2,23.2-1.6,33.8h74c-.2,22.7-1.9,45.6-2.1,68.1-34.5.4-78.3,1.1-112.3.8h-37.3c-.5,30.5-4.1,61.4-5,91.9-.9,25.7,17.8,50.8,29.4,75.4-34.2,0-69.6.3-103.7,0l-27.7-41.1c-5-7.5-15.4-19.4-12.5-27,1.3-29.4,4.7-60.3,7.1-89.8l14-176c0-7.9.7-19.9,2.3-27.7,1.3-12.2,1.3-25,3.4-37.2h44.1c21.3,0,41.1-.9,62.5-.7-1.5,27.4-5.4,61.9-4.9,88.7-.5,3.4-.8,5.1-.6,8.4h36.5c.7-19.7,1.5-39.4,2.6-59.1.6-11.6.6-26.7,2.5-38,20.5,0,90.2.7,106.5-.7-.1,43.1-4,87.3-3.5,130.2h0Z"/>
  <path class="st32" d="M1166.653,193.106c21.3,0,41.1-.9,62.5-.7-1.5,27.4-5.4,61.9-4.9,88.7-.5,3.4-.8,5.1-.6,8.4h-72.6c0-12.8,1.6-27.7,2.5-40.7-6,0-12.5,0-18.5-.3-16.3-1.1-16.6,1.4-18.2,9.3,0-7.9.7-19.9,2.3-27.7,1.3-12.2,1.3-25,3.4-37.2h44.1v.2h0Z"/>
  <path class="st42" d="M1157.253,193.106h9.3l-4,56.1c-.7,9.8-2.1,22.3-1.8,31.9,18.7,0,45.4.4,63.4-.1-.5,3.4-.8,5.1-.6,8.5h-72.6c0-12.8,1.6-27.7,2.5-40.7-6,0-12.5,0-18.5-.3-16.3-1.1-16.6,1.4-18.2,9.3,0-7.9.7-19.9,2.3-27.7,1.3-12.2,1.3-25,3.4-37.2h34.8v.2h0Z"/>
  <path class="st31" d="M1122.453,193.106h34.8c-.3,15.6-2.9,32.3-2.8,47.5h-35.3c0-3.3.1-7.1,0-10.4,1.3-12.2,1.3-25,3.4-37.2h0l-.1.1h0Z"/>
  <path class="st43" d="M1153.253,530.806h8.3c3.9,5.5,8.8,11-3.5,14.6-5.9-.3-3.3.3-7.9-1.8-1.5-2.8-1.9-1.5-.3-3.8,3.2-.2,2.6-.2,5.8-.7.9-2.2-2-4.6-2.5-8.2h0l.1-.1Z"/>
  <path class="st42" d="M1152.553,530.506c-.1-6.3-1.6-12.1,4.3-17.5h2.3c5.8,5.4,3.2,10.7,3,17.1l-.4.4h-8.3l-.7-.1h0l-.2.1h0Z"/>
  <path class="st28" d="M517.053,195.106l-46.3,230.9-1.8,9.9c-10.4-1-108.1-1.1-112,.9.9-4.3,1.8-8.7,2.9-12.9,2.5-10.3,4.8-20.7,6.8-31h-36.6l-3.9,17.1-2.1,9.6c-8.9,36.3-16,77-26.1,112.7-10.6.8-53.8.6-65.8.1l-.2.5c-3.4-.6-3.2-.4-6.7,0l-2.5-.7c-8.5.5-32.9,3.1-37.8-1.4,9.4-32.7,17.1-67.8,25.4-100.7l48.7-194.4,1.8-7.8,8.2-31.6c35.5,0,70.3-.8,106.3-.7l-7.1,31.6c-.3,1.5-1.9,9.6-2.4,10.6-6,29-13.5,58.3-19.9,87.3h36.1c7.7-28.4,13.6-60.8,20-89.5.7-3.8,1.4-7.6,2.4-11.3,2.1-9.1,4.1-19.7,6.8-28.6,34.4,0,73.1-1,106.2-.7h-.2l-.2.1h0Z"/>
  <path class="st27" d="M375.153,195.806l-7.1,31.6c-36.2-.1-70.8.9-107.3.7l8.2-31.6c35.5,0,70.3-.8,106.3-.7h-.1,0Z"/>
  <path class="st42" d="M326.253,409.906l-2.1,9.6c-5.8-2.3-53.7-1.3-64.7-1.3l-18.2,75.6c-2.9,12.1-7.1,26.6-9.1,38.6l-.2.5c-3.4-.6-3.2-.4-6.7,0l-2.5-.7c8.8-40.5,19.7-81.9,29.6-122.3h74-.1,0Z"/>
  <path class="st42" d="M356.953,436.806c.9-4.3,1.8-8.7,2.9-13,.6,2.8-.6,2,2.1,3.4h2.6c23.4-1.6,52.2-.1,76-.5,7.5,0,23.8.4,30.2-.6l-1.8,9.9c-10.4-1-108.1-1.1-112,.9v-.1h0Z"/>
  <path class="st42" d="M260.653,228.106c36.4.2,71.1-.7,107.3-.7-.3,1.5-1.9,9.6-2.4,10.6l-.8-1.3c-4.6-1.8-92.5-1-105.7-.8l1.8-7.8h-.2Z"/>
  <path class="st42" d="M401.753,235.806c.7-3.8,1.4-7.6,2.4-11.3l1.3,2.4c12.1,3.1,28.9-2.4,33.6,2.6-.2,2.8,0,2.7-2.7,5.2-4.6,1.7-27.4,1.3-34.5,1.3h0l-.1-.2Z"/>
  <path class="st34" d="M2279.653,519.606c.3.9,1.9,6.2,1.4,6.7-19.5,20.6-44.7,40.6-66.6,60.6-.7.7-2.2,1.7-2.8,2.1-34.6,0-68.9.7-104,.7,8.5-9.3,57.4-58.9,57.5-64.2v-.7c-3.3-37.4-9.1-76.4-13.7-113.9l-26.9-222.1h107.9c2.3,17.2,4.8,34.4,7.5,51.6l1.8,13.2,37.7,265.9h0l.2.1h0Z"/>
  <path class="st5" d="M2214.053,527.806c2.2,0,6.2,0,8.2.3-10.6,15.6-12.4,9.4-27.4,17.6-4.7.5-2.4.6-7.1-.4,0-4.5,12.9-15.2,21.7-15.1,1.9,0,3.2-1.3,4.6-2.3h0v-.1Z"/>
  <path class="st42" d="M2240.153,240.506l1.8,13.2c-10-2.6-38,1.3-45.2-2.1-1.9-2.6-1.8-2.4-1.3-5.4,8.1-6.3,40.6,4.5,44.7-5.9h0v.2Z"/>
  <path class="st42" d="M2213.253,527.106c-.4-7.1-5.2-30.5-2.1-35.1,5.3-.1,3.2-.6,7,.7,2.4,11.7,3.7,23.2,5.1,34.9l-1,.4c-2.1-.1-6-.2-8.2-.3l-.9-.7h0l.1.1h0Z"/>
  <path class="st29" d="M1810.153,343.206l10.4,185c-8,20.9-18.1,41.6-26.2,62.2h-104l15.4-61.4-6.6-194.4c-1.6-47.3-2.1-96.4-5.2-143.5,34.9,0,71.6-.7,107.4-.7,1.6,13.5,1.9,28,2.6,41.6,1.6,6,1.1,16.2,1.2,22.5,2.6,29.1,3.5,59.6,5.1,88.7h-.1Z"/>
  <path class="st43" d="M1753.853,529.406l9-.6c-1,3.8-2.6,11.2-5.4,14.7-.6.8-4.8.7-7,.9-4,1.7-4.6,1.8-8.9,3l-2.1-.4c-1.1-2.8,1-13.1,6.3-14.6,5.1-1.5,3.8.7,8-2.9h0l.1-.1h0Z"/>
  <path class="st42" d="M1803.753,231.906c1.6,6,1.1,16.2,1.2,22.5-14.9-.3-27.8.4-42.4.1-2.3,0-1.4,0-3.2-1.3.1-3.7-.8-2.1,2.3-5.1,8.6-3,30.2-1.5,42.1-1.5v-14.8h0v.1Z"/>
  <path class="st42" d="M1753.253,516.906c-.6-5.7-3.4-18.9,1.6-23.2,3.6-.5,1.8-.6,5.2.1,4.1,7.8,1,16.6,2.7,24.6v10.3l-9,.6c-.8-3.2-.6-9-.7-12.5h0l.2.1h0Z"/>
  <path class="st30" d="M1367.453,551.306l10.5,39.9c-35.1,0-68.8.5-103.4.7-9-18.2-19.7-43.4-26.9-61.7.6-29.6,2.9-60.2,4.4-89.8l.6-15.8c34,.3,77.8-.4,112.3-.8v9.3c-1.9,31.3-2.6,65.5-2.8,96.8.5,5.2,3.9,15.9,5.4,21.6h0l-.1-.2Z"/>
  <path class="st42" d="M1252.653,424.406c34,.3,77.8-.4,112.3-.8v9.3c-22.2-.1-44.7-.2-67-.2s-30.7-.3-43,.4c-2.2,2.3-2.2,4.5-2.8,7.1l.6-15.8h-.1Z"/>
  <path class="st33" d="M2742.253,523.906l-1.6,1.8c-7.8,1.3-46.3.8-56.1.5l-.7.5c-4.6-.4-12.9.1-17.9.3l.4-.7c-13.1.2-26.1.2-39.2,0l-18.5-88.7-1.8-9.2c11,.4,108.1.7,113.4-.7l2.4,9.9c6.3,28.4,14.1,58,19.7,86.3h-.1,0Z"/>
  <path class="st42" d="M2720.153,427.806l2.4,9.9c-36.6-.5-77.1,0-113.9,0l-1.8-9.2c11,.4,108.1.7,113.4-.7h-.1,0Z"/>
  <path class="st42" d="M2666.253,526.306l6.2-.6c5.3-4.6-3.8-15.4,3-17.5,2.1.4,4.3.5,4.9,1.4,2.4,3.7,4,12.9,4.3,16.6l-.7.5c-4.6-.4-12.9.1-17.9.3l.4-.7h-.2Z"/>
  <path class="st26" d="M468.953,435.906c-5.8,28.5-11.4,66.6-19.2,93.9l-1.2,1.6c-5.4,2.1-96.3,1.3-109.2,1-2.8-1.4-2.1-1.8-2.8-4.5,1.3-3.8,2.3-8,3.1-11.8,5.7-26.4,12.1-52.8,17.4-79.2,3.8-2,101.5-1.9,112-.9h0l-.1-.1Z"/>
  <path class="st35" d="M763.053,460.106c-.4,4.3-.8,11.2-1.8,15.2-2.5,14.4-6.5,35.5-7.4,49.7-1.2,3-.7,4.1-3.8,6-10.8,1.2-99.6,1.3-111.2.5,4.7-17.4,7.6-43.4,10.5-61.4.5-4,1.2-8.2,1.9-12.2l1.5,2.2c8.5,1.6,95.6.6,110.4,0h-.1Z"/>
  <path class="st42" d="M651.153,458.006l1.5,2.2c8.5,1.6,95.6.6,110.4,0-.4,4.3-.9,11.2-1.8,15.2-.2-2.9.4-3.5-2.1-5.8-14.1-1-97.8-.6-109.9.6.5-4,1.2-8.2,1.9-12.2h0Z"/>
  <path class="st5" d="M2725.653,570.206l9.3-4.7c11.9,4.2,33.7-3.2,42.9,4.9-1.4,1.3-2.1,2.2-5.6,2.3-19.2.3-26.6-3.7-46.6-2.4h0v-.1h0Z"/>
  <path class="st43" d="M642.153,560.906c-15.2-.3-29,1.2-43.7.6-10.1-4.5-20.2-1.8-24.9-5.1,23.8-4.3,49.7,5,62.8.5l5.9,4h-.1Z"/>
  <path class="st16" d="M184.953,531.006c4.9,4.4,29.3,1.8,37.8,1.4l2.5.7c-1,5.4-7.2,6.5,10.1,9,11,1.6,31.1,12.7,39,17.4-12.5.1-22.5.4-34.1-2.4-2.1-.5-5.2-.4-7.6-.4-13.9-7.5-31.9-14.9-45.8-22.6-2.6-1.5-1.9-.7-1.8-2.9h-.1v-.2Z"/>
  <path class="st43" d="M225.153,533.006c3.5-.6,3.3-.7,6.7,0,19.4,9.6,38.6,19.4,57.8,29.3-8.7,0-37.2-.7-43.1,1.3-4.1-1.8-10-4.9-14-6.9,2.4,0,5.4,0,7.6.4,11.6,2.9,21.6,2.6,34.1,2.4-7.9-4.6-28-15.8-39-17.4-17.3-2.5-11.1-3.6-10.1-9h0v-.1Z"/>
  <path class="st5" d="M2665.853,527.006c5-.1,13.3-.7,17.9-.3-5.3,4.4-14.9,9.9-24,11.8l-1-.9,3-3.8-2.4-2.4c1-2.6,1.9-2.2,6.5-4.4h0Z"/>
  <path class="st1" d="M88.653,673.306l2934.7-3.2-2934.7,3.2h0Z"/>
  <path class="st1" d="M3002.953,698.506l-2881.3,3.2,2881.3-3.2Z"/>
  <polygon class="st6" points="184.953 531.006 207.953 608.106 2763.453 602.106 2742.253 523.906 184.953 531.006"/>
  <path class="st45" d="M2587.153,517.906c.7,2,2.6,5.7.7,7.2-6.1,4.9-14.6,10-21.7,14.5-15.4,9.6-30.8,19.3-46,29l-6.5,4-21.9,14.1c-13.1,0-27.2.7-40.8.7h-200.2c20.8-19,47.5-36.9,63.8-57.4,4-5,4.5-4.9,3.8-10.7.7,2.6.8,4.1,3.1,6.5,8,.6,24.8,0,33.5-.2,15.2-.1,30.3-.2,45.5-.1,60.3,0,126,.7,185.8-.2,2-2.6,1.2-4.2,1.1-7.2h0l-.2-.2h0Z"/>
  <path class="st44" d="M2279.653,517.906c.3.9,1.9,6.2,1.4,6.7-19.5,20.6-44.7,40.6-66.5,60.6-.7.6-2.2,1.7-2.8,2.1-34.6,0-68.9.7-104,.7,8.5-9.3,57.4-58.9,57.5-64.2v-.7l2.3,2.1c7.4,1.1,40,1.3,45.8,0l.9.7c2.2,0,6.2,0,8.2.3l1-.4c12.6,0,44.1.5,55-.4,1.7-1.8,1.3-5.4,1.3-7.7h0l-.1.2h0Z"/>
  <path class="st47" d="M2819.253,520.406c.6,1.2,1.2,3.7,2.6,3.8,12.4,1,55.5,1.2,65-.6l.3.7c3.7-.2,4.9-.4,8.5,0l1.2-.5c6.3.7,32.9,1,38.6-.7-.1.5-.4,1-.6,1.5-34.6,16.7-96.2,46.8-128.6,61.6-35.3,0-70,.8-105.9.7,9.7-5,19.7-10.1,29.1-15.2l9.3-4.7c21.6-11.3,59.8-29.7,79.7-42.7.2-1.4.4-2.5.6-3.5h0l.2-.4h0Z"/>
  <path class="st46" d="M2742.253,522.106c.4,2.3,1,2.1-2.4,4-36.4,20-72.2,40.9-109.3,60.4-30.2,0-61.7.2-91.7,0,27.3-16.8,54.7-33.5,82.5-50-1.2-6.7-1.7-6.8,5.8-12,13.1.2,26.1.2,39.2,0l-.4.7c5-.1,13.3-.7,17.9-.3l.7-.5c9.9.4,48.3.8,56.1-.5l1.6-1.8h0Z"/>
  <g class="st48">
    <g>
      <path class="st36" d="M2126.753,522.906c1.4,5.2-8.7,12.9-12.8,18.2l-4.6,5.4c-12.6,12.4-24.6,28.3-37.2,41.4l-243.1.7c9.6-20.7,20.3-41.3,29.8-62.1,8.7.4,46.6.4,54.9-.2,2.8-2.1,1.8-1.9,2.1-5.1h.2l.4,4.9,8.9.5.4-1.6c2.6,1.5,5.4,1.5,9.1,1.5,17.4-.5,115.1,1.1,125.1-.7l.5.5,8.2.5.7-.5c5.8.4,52.5-.7,56-1.3l1.5-2.3-.1.2h0Z"/>
      <path class="st37" d="M1820.553,526.406c-8,20.9-18.1,41.6-26.2,62.2h-104l15.4-61.4c10.3.5,36.1.2,47.5.2v-6.8c.1,2.6.3,5.2.7,7.1l9-.6v-10.3,10.6c14.2,0,45.5.6,57.7-1h-.1Z"/>
      <path class="st39" d="M1591.353,527.306c-.7,6.2-1.3,12.4-1.7,18.5-.2,4.3,0,7.4-1.2,11.7.3,9-1.6,22.4-2.1,31.9h-103.7c-3.2-18.4-4.6-43-5.9-61.8,6.4.9,56.3.7,64.7.3,3-1.9,1.9-1,2.2-3.8l.2,3.8c3.3-.2,5.2-.5,8.4-.1l.2-.5c12.9.2,26,.2,38.9,0h0Z"/>
      <path class="st38" d="M1367.453,549.406l10.5,39.9c-35.1,0-68.8.5-103.4.7-9-18.2-19.7-43.4-26.9-61.7,8.9,1,42.5,0,53.9-.1,18.5-.4,42.9.4,60.5-.2.5,5.2,3.9,15.9,5.4,21.6v-.2Z"/>
      <path class="st24" d="M1208.953,528.706c0-4.6-.6-9.7,1.4-14.1-.9,25.7,17.8,50.8,29.4,75.4-34.2,0-69.6.3-103.7,0l-27.7-41.1c-5-7.5-15.5-19.4-12.5-27,.3,2.9-.4,4.3,2,6.5,11.2,1,41.8.4,54.8.5l.7.2h8.3l.5-.6c8.4.7,36.9.3,46.8.3v-.1h0Z"/>
      <path class="st25" d="M1100.853,589.906c-8.6-.5-24.9-.3-34.2-.3-5.1-5.7-12.9-14.8-16.4-21-1.6-2.8,2.7-.7,5.5-3.2-1.6-3.5-15.6-22.8-19.3-24.3-4.6,0-3.2.3-7.5-.4-4.8-3.7-7.3-8.3-10.4-12.6l.7-3.5h0l.6,2.7c5.3,2.2,31,2.1,37.2.9,8.9,16.9,32.1,43.7,43.8,61.7h0Z"/>
      <path class="st18" d="M1066.653,589.606c9.3,0,25.6-.2,34.2.3-8.9.7-32.5.5-42.4.4-16.9-.2-36.4.3-53,0-7.7.7-38,.5-47.6.5h-97.9c-18-14.6-34-30.7-51.5-45.5-5.8-4.9-13-11.1-17.6-16.3,18.4,1.5,56.1,0,75.8-.2l.3,1c8.9-.5,29-.6,38-.1l.3-.5c27.2,2.3,73.1-.9,101.8.1.7-.4,1.5-.7,2.3-1l.5-2.9.3,4.4,8.6-1.5h0c3,4.2,5.6,8.8,10.4,12.5,4.3.7,2.9.4,7.5.4,3.7,1.5,17.7,20.8,19.3,24.3-2.8,2.5-7.1.4-5.5,3.2,3.5,6.2,11.3,15.3,16.4,21l-.2-.1h0Z"/>
      <path class="st17" d="M1019.353,524.506h0l-.7,3.6h0l.7-3.6h0Z"/>
      <path class="st19" d="M821.253,590.806h-100.1c-24.5-18.3-60-42.7-82.4-60.8h0c11.7.7,100.5.6,111.2-.6,3.2-1.9,2.6-3,3.8-6-.7,5.8-.4,5.1,3.3,9.9,15.6,20.3,43.6,38.4,64.2,57.5h0Z"/>
      <path class="st22" d="M687.653,591.306h-103.7c-30.2-20.4-64.5-39.4-94.5-60-3.5-2.4-1.7-5.6-.5-8.4-.2,2.8-.9,4.3,1,6.7,15.4,1.3,37.7-.2,54.2.7,4.6,1,5.6,2.1,9.6-.2,9-.3,40.5.7,46-.9l2.1-5.3c0,1.2-.4,5,.4,5.8,7.8,8.6,23.8,17.7,34,25.3l5.9,4c14.3,10.7,30.5,21.7,45.5,32.2v.1h0Z"/>
      <path class="st20" d="M537.453,591.306h-91.4c-36.9-18.9-72.3-40.3-108.6-59.7-2.6-1.3-1.3-3.7-1-5.5.8,2.7,0,3.2,2.8,4.5,12.9.4,103.7,1.2,109.2-1l1.2-1.6c.3,2.6,3.9,4.6,4.9,7.8,3.1,9.8,22.6,19.5,34.6,26.6l48.4,28.9h-.1Z"/>
      <path class="st21" d="M489.153,522.506c0,.1-.1.3-.2.4v-.4h.2Z"/>
      <path class="st23" d="M412.553,592.206h-103.6c-19.3-9.5-42.6-21.5-62.4-30.4-4.1-1.8-10-4.9-14-6.9-13.9-7.5-31.9-14.9-45.8-22.6-2.6-1.5-1.9-.7-1.8-2.9v-.2c4.9,4.4,29.2,1.8,37.7,1.4l2.5.7c3.5-.6,3.3-.7,6.7,0l.2-.5c12.1.4,55.2.6,65.9-.2,8.8,5.9,26.4,14.5,36.6,20.1,25.4,13.9,52.8,27.6,77.9,41.6l.1-.1h0Z"/>
    </g>
  </g>
  <polyline class="st2" points="121.653 734.806 55.753 673.306 3064.553 670.106 3002.953 731.606"/>
</svg>